<svg width="119" height="154" viewBox="0 0 119 154" fill="none" xmlns="http://www.w3.org/2000/svg">
<path d="M71.8191 86.8472C70.4608 87.1514 69.1378 87.715 67.9322 88.5024C64.7915 90.5037 62.9642 93.3604 63.8511 94.8826C64.738 96.4047 68.0031 96.0154 71.1439 94.0141C72.3657 93.2545 73.451 92.2837 74.3332 91.1617C74.7426 90.6196 74.8161 89.9442 74.5209 89.4393L73.3687 87.4619C73.0755 86.9554 72.4674 86.7145 71.8191 86.8472Z" fill="#D5D6DB"/>
<path d="M63.9322 59.8541C62.9473 60.0749 61.9879 60.4837 61.1136 61.0547C58.8368 62.5055 57.511 64.5769 58.1536 65.6797C58.7962 66.7825 61.1647 66.5 63.4413 65.0493C64.3272 64.4983 65.1141 63.794 65.7539 62.9803C66.0504 62.5874 66.1035 62.0981 65.8895 61.732L65.0552 60.3002C64.8429 59.933 64.4023 59.758 63.9322 59.8541Z" fill="#D5D6DB"/>
<path d="M51.118 60.9845C50.8988 60.9601 50.665 61.0185 50.4622 61.148L45.114 64.5562C44.6667 64.8404 44.4877 65.3878 44.7146 65.7789C44.7665 65.8686 44.8375 65.9451 44.9237 66.0041L58.1054 75.0891L75.9388 63.7244L51.118 60.9845Z" fill="#029BC5"/>
<path d="M107.495 59.6999L58.9629 90.252L30.2502 101.677L15.607 104.588L13.9961 101.851L94.8912 51.9043C97.302 50.4095 99.9876 49.4919 102.676 49.2448C103.854 49.1429 105.017 49.1821 106.138 49.3609C107.132 49.5116 108.075 49.8023 108.939 50.2244C109.902 50.7026 111.737 50.7578 112.331 51.7106C112.333 51.7091 113.735 56.0835 107.495 59.6999Z" fill="#E1E6E9"/>
<path d="M59.6063 86.2094L38.611 119.679C38.3488 120.15 38.5044 120.676 38.9583 120.855C39.2369 120.965 39.5778 120.922 39.8642 120.74L45.2082 117.35C46.2361 116.697 47.1462 115.869 47.8823 114.915L88.5987 67.0462L59.6063 86.2094Z" fill="#029BC5"/>
<path d="M6.62667 85.092C6.27645 84.9723 5.85966 85.0344 5.50784 85.2584L1.09034 88.0718C0.488427 88.4549 0.248576 89.1913 0.554438 89.717C0.612713 89.8169 0.688413 89.9049 0.779149 89.9773L13.1559 99.8897L26.1689 91.7615L6.62667 85.092Z" fill="#029BC5"/>
<path d="M17.3042 101.677L10.6428 111.006C10.5451 111.14 10.5681 111.308 10.694 111.382C10.7848 111.435 10.9089 111.425 11.0096 111.358L15.1379 108.742C15.17 108.721 15.199 108.696 15.223 108.667L24.9565 96.832L17.3042 101.677Z" fill="#029BC5"/>
<path d="M105.341 49.7631C104.187 49.5777 102.989 49.5381 101.776 49.6447C100.595 51.2958 99.8407 53.1505 99.5873 55.0239C99.5688 55.4002 99.8722 55.6711 100.265 55.6289C100.387 55.6157 100.509 55.5728 100.618 55.504L108.226 50.6597C107.336 50.2211 106.365 49.9193 105.341 49.7631Z" fill="#029BC5"/>
<path d="M88.7622 58.6712L93.7292 55.5343L98.3558 63.4033L93.3888 66.5403L88.7622 58.6712Z" fill="#D5D6DB"/>
<path d="M85.6368 61.7834C85.0383 62.1626 84.799 62.8914 85.1029 63.4111L85.5952 64.2531C85.919 64.7595 86.6583 64.8486 87.2466 64.4519C87.8064 64.0741 88.0319 63.3874 87.7621 62.8804L87.2698 62.0384C86.9662 61.5192 86.2353 61.4049 85.6368 61.7834Z" fill="#3A556A"/>
<path d="M81.1725 64.5559C80.5739 64.9351 80.3347 65.6638 80.6385 66.1836L81.1308 67.0255C81.4547 67.532 82.194 67.6211 82.7822 67.2244C83.3421 66.8466 83.5675 66.1599 83.2977 65.6529L82.8054 64.8109C82.5015 64.2918 81.7707 64.1775 81.1725 64.5559Z" fill="#3A556A"/>
<path d="M76.7066 67.3293C76.1087 67.7089 75.8703 68.4368 76.1739 68.9561L76.6662 69.798C76.9901 70.3045 77.7294 70.3935 78.3176 69.9968C78.8775 69.6191 79.1029 68.9324 78.8331 68.4254L78.3408 67.5834C78.0369 67.0637 77.3054 66.95 76.7066 67.3293Z" fill="#3A556A"/>
<path d="M72.2422 70.1016C71.6443 70.4813 71.406 71.2092 71.7096 71.7285L72.2019 72.5705C72.5257 73.0769 73.265 73.166 73.8533 72.7693C74.4131 72.3915 74.6386 71.7048 74.3688 71.1978L73.8765 70.3558C73.5723 69.8363 72.8408 69.7225 72.2422 70.1016Z" fill="#3A556A"/>
<path d="M67.7783 72.8743C67.18 73.2541 66.9415 73.9823 67.2453 74.5018L67.7379 75.3442C68.0416 75.8634 68.7728 75.9772 69.3712 75.5982C69.9696 75.2192 70.2085 74.491 69.9048 73.9717L69.4122 73.1294C69.1093 72.6096 68.3783 72.4952 67.7795 72.8735C67.779 72.8738 67.7788 72.874 67.7783 72.8743Z" fill="#3A556A"/>
<path d="M63.3139 75.6468C62.7157 76.0266 62.4772 76.7548 62.781 77.2743L63.2736 78.1166C63.5772 78.6359 64.3085 78.7496 64.9068 78.3706C65.5052 77.9916 65.7441 77.2635 65.4404 76.7442L64.9478 75.9019C64.6449 75.3821 63.9139 75.2676 63.3152 75.646C63.3147 75.6463 63.3142 75.6466 63.3139 75.6468Z" fill="#3A556A"/>
<path d="M58.8493 78.4193C58.2511 78.7991 58.0125 79.5273 58.3163 80.0468L58.8089 80.8891C59.1134 81.4079 59.845 81.5204 60.4427 81.141C61.0394 80.7621 61.2778 80.0355 60.9755 79.5168L60.4829 78.6745C60.1794 78.1549 59.4482 78.0406 58.8493 78.4193Z" fill="#3A556A"/>
<path d="M54.3847 81.1918C53.7865 81.5716 53.5479 82.2998 53.8517 82.8193L54.3443 83.6617C54.6488 84.1804 55.3804 84.293 55.9781 83.9135C56.5748 83.5347 56.8132 82.808 56.5109 82.2894L56.0183 81.447C55.7148 80.9274 54.9836 80.8131 54.3847 81.1918Z" fill="#3A556A"/>
<path d="M49.9203 83.9642C49.3221 84.344 49.0836 85.0722 49.3874 85.5917L49.88 86.434C50.1844 86.9528 50.916 87.0654 51.5137 86.6859C52.1104 86.3071 52.3488 85.5804 52.0466 85.0618L51.554 84.2195C51.2502 83.7 50.519 83.5857 49.9203 83.9642Z" fill="#3A556A"/>
<path d="M45.4545 86.7374C44.8562 87.1164 44.6173 87.8446 44.9209 88.3639L44.9216 88.365L45.4142 89.2073C45.7186 89.7261 46.4502 89.8387 47.0479 89.4592C47.6446 89.0803 47.883 88.3537 47.5808 87.835L47.0882 86.9927C46.7846 86.473 46.0534 86.3587 45.4545 86.7374Z" fill="#3A556A"/>
<path d="M40.9914 89.5091C40.393 89.8881 40.1541 90.6163 40.4578 91.1355L40.4584 91.1366L40.951 91.9789C41.2555 92.4977 41.9871 92.6103 42.5848 92.2308C43.1815 91.852 43.4199 91.1253 43.1177 90.6067L42.6251 89.7644C42.3213 89.2449 41.59 89.1306 40.9914 89.5091Z" fill="#3A556A"/>
</svg>
