<svg width="348" height="11" viewBox="0 0 348 11" fill="none" xmlns="http://www.w3.org/2000/svg">
<mask id="mask0_2704_904" style="mask-type:alpha" maskUnits="userSpaceOnUse" x="0" y="0" width="348" height="11">
<rect width="347.419" height="10.8287" fill="#C4C4C4"/>
</mask>
<g mask="url(#mask0_2704_904)">
<path d="M52.1835 -2.29024L53.0325 -2.43298L51.3802 -2.63762L52.1723 -2.78742C52.9666 -2.78605 53.9956 -2.56159 54.5556 -2.68086C54.624 -2.79633 53.7591 -2.83339 53.5384 -2.92539C53.3432 -3.01968 53.1838 -3.11337 53.0622 -3.20532C53.4947 -3.20433 53.9703 -3.18209 54.4606 -3.1399C55.1201 -3.07101 55.7669 -3.03752 56.3298 -3.04313C57.4808 -3.02452 58.5927 -3.04308 59.844 -3.03899L59.4277 -3.3169L61.0404 -3.25188C61.2114 -3.23071 61.4151 -3.26476 61.583 -3.23857C62.9807 -3.01696 63.5721 -3.13772 64.243 -3.23785C64.3806 -3.26376 64.5463 -3.2831 64.7358 -3.29538C66.6003 -3.24229 68.2815 -2.93167 69.9606 -2.77221C70.2767 -2.7315 70.5798 -2.67924 70.8485 -2.61914C71.4325 -2.5023 72.0822 -2.4069 72.738 -2.34168C73.3938 -2.27646 74.0348 -2.2435 74.6025 -2.2458C75.8579 -2.24838 77.2762 -2.1711 78.7202 -2.02144C79.1496 -1.97214 79.5793 -1.93962 79.9819 -1.92595C80.3845 -1.91227 80.7511 -1.91774 81.0583 -1.94202L82.0346 -1.78338C82.4578 -1.84775 82.9944 -1.88307 83.6119 -1.88719C84.2293 -1.89131 84.9148 -1.86415 85.6266 -1.80735C86.3851 -1.74573 87.1556 -1.7042 87.9427 -1.63905C89.5684 -1.51452 91.1507 -1.43835 92.6402 -1.41293C94.8584 -1.33758 97.0257 -1.27933 99.2635 -1.1854C100.663 -1.14006 102.028 -1.11512 103.347 -1.11072C104.929 -1.09298 106.639 -1.00713 108.396 -0.857301C108.312 -0.716727 107.542 -0.758258 107.025 -0.763014C105.357 -0.786379 103.65 -0.846924 101.934 -0.892407C101.161 -0.91016 100.409 -0.916884 99.6827 -0.91253C98.4688 -0.918359 97.189 -0.955815 95.8653 -1.02426C93.7744 -1.09957 91.7502 -1.13577 89.8136 -1.1325C89.6618 -1.12693 89.5226 -1.11706 89.3986 -1.10306C89.3727 -1.09094 89.3676 -1.07564 89.3837 -1.05866C89.3999 -1.04167 89.4368 -1.02354 89.4909 -1.00603C89.5449 -0.988519 89.6143 -0.972202 89.6925 -0.958636C89.7707 -0.945068 89.855 -0.934706 89.9374 -0.928548C90.7066 -0.833281 91.5327 -0.730962 92.2581 -0.716568C92.2861 -0.715493 92.316 -0.713036 92.3456 -0.709375C92.3751 -0.705714 92.4036 -0.700939 92.429 -0.695399C94.0529 -0.494281 95.388 -0.528315 96.653 -0.495594C98.7531 -0.40716 100.778 -0.365851 102.696 -0.372294C102.986 -0.371856 103.299 -0.36036 103.624 -0.338221C105.633 -0.248479 107.511 -0.238443 109.171 -0.308564C109.855 -0.326329 110.49 -0.36621 111.224 -0.366877C111.677 -0.369622 112.07 -0.395071 112.382 -0.441702C112.693 -0.488333 112.916 -0.555182 113.036 -0.638226C113.346 -0.594505 113.661 -0.555538 113.976 -0.521795C114.165 -0.502501 114.346 -0.497376 114.482 -0.507472C114.619 -0.517569 114.701 -0.542131 114.712 -0.576191C114.769 -0.67158 114.338 -0.719484 113.965 -0.760333C114.19 -0.780791 114.444 -0.792825 114.72 -0.796148C116.276 -0.817944 117.944 -0.792218 119.69 -0.719537C121.045 -0.632538 122.127 -0.703349 123.552 -0.580664C123.723 -0.559494 123.864 -0.590567 124.021 -0.598027C124.432 -0.637315 124.943 -0.646146 125.51 -0.623746C126.078 -0.601347 126.684 -0.548394 127.278 -0.469478C128.018 -0.685078 129.615 -0.438775 130.794 -0.416638C131.157 -0.306995 130.741 -0.32627 130.723 -0.296148C130.705 -0.266025 130.723 -0.296155 130.58 -0.313797C129.403 -0.158523 127.789 -0.124665 125.967 -0.216981C125.629 -0.216598 125.308 -0.209524 125.006 -0.195828C124.548 -0.176443 124.032 -0.178378 123.48 -0.20155C122.877 -0.218569 122.324 -0.210486 121.846 -0.177693C121.571 -0.178226 121.338 -0.161799 121.169 -0.129922C121.001 -0.0980439 120.902 -0.0517488 120.881 0.00465858C121.065 0.0481441 121.269 0.0879337 121.484 0.122448C122.61 0.258725 123.733 0.315133 124.632 0.280575C126.196 0.221031 128.058 0.279138 129.721 0.258809C130.845 0.250575 132.042 0.274031 133.288 0.328741C133.288 0.328741 133.255 0.383966 133.252 0.388987C133.4 0.412897 133.555 0.432082 133.708 0.445442C133.708 0.445442 133.708 0.445442 133.723 0.42034C133.655 0.396234 133.562 0.373556 133.456 0.354933L133.086 0.309061C133.337 0.297124 133.572 0.261584 133.835 0.283298C134.388 0.323642 134.916 0.340673 135.388 0.333382C135.86 0.326089 136.266 0.294621 136.582 0.240865C137.141 0.171971 137.837 0.140639 138.624 0.148897C139.227 0.141375 139.808 0.12521 140.365 0.100481C140.365 0.100481 140.401 0.0402404 140.664 0.00822053C140.415 -0.0312697 140.154 -0.0635173 139.895 -0.0870406C138.768 -0.145813 137.638 -0.199564 136.53 -0.239746C136.122 -0.244086 135.738 -0.237353 135.387 -0.219679C134.412 -0.198997 133.317 -0.22835 132.166 -0.30603C132.166 -0.30603 131.938 -0.334255 131.824 -0.348369C132.147 -0.480797 133.261 -0.34822 133.712 -0.437904C133.986 -0.436272 134.469 -0.424994 134.452 -0.448605C134.415 -0.480111 134.41 -0.50938 134.439 -0.534312C134.468 -0.559245 134.529 -0.579223 134.619 -0.592814C134.709 -0.606406 134.825 -0.613276 134.959 -0.612927C135.093 -0.612578 135.241 -0.605016 135.393 -0.590794C136.661 -0.513852 137.855 -0.492455 138.903 -0.527915C139.3 -0.52723 139.745 -0.504425 140.139 -0.49872C140.38 -0.491849 140.601 -0.49567 140.788 -0.509975C141.74 -0.615321 143.022 -0.623016 144.44 -0.5319C145.125 -0.499142 145.766 -0.494762 146.328 -0.518981C146.728 -0.523317 146.898 -0.448419 147.183 -0.413135L148.392 -0.338756L146.839 -0.245559C147.171 -0.0319766 147.435 0.0384478 147.977 0.051753C148.769 0.0718481 149.54 0.0809253 150.285 0.0789317C150.837 0.0771757 151.292 0.0311795 152.039 0.112875C152.171 0.126203 152.298 0.130515 152.399 0.125092C153.273 0.0525628 154.326 0.0359179 155.486 0.076292C156.086 -0.059524 157.109 0.0725244 158.055 0.178919C158.36 0.0766144 157.807 0.0296513 157.477 -0.0327702C158.268 -0.0263814 159.065 -0.0300304 159.882 -0.0150913C160.128 -0.0205294 160.409 -0.0112262 160.702 0.012086C160.996 0.0353962 161.295 0.0720785 161.576 0.119263C161.713 0.149753 161.878 0.172699 162.037 0.183337C162.195 0.193975 162.336 0.191494 162.429 0.176405C162.853 0.131906 163.532 0.172892 163.882 0.097725C164.007 0.0804369 164.185 0.078025 164.384 0.0909062C164.584 0.103789 164.792 0.131133 164.972 0.168037C164.775 0.179551 164.6 0.197685 164.451 0.222034C163.915 0.301132 164.112 0.4333 164.793 0.625446C165.839 0.614879 166.907 0.61788 167.877 0.581666C168.417 0.549158 169.079 0.55932 169.789 0.611011C170.498 0.662705 171.227 0.753874 171.893 0.874273C172.134 0.920572 172.408 0.952637 172.662 0.964105C172.916 0.975572 173.13 0.965602 173.263 0.936167C173.345 0.902126 173.37 0.859043 173.337 0.810655L172.653 0.725977C172.653 0.725977 172.68 0.680792 172.686 0.670751L173.669 0.66316C174.189 0.662897 174.732 0.676207 175.223 0.672414C175.945 0.647197 176.769 0.661254 177.645 0.713708C178.453 0.767495 179.246 0.808152 180.019 0.83532C180.767 0.863283 181.309 0.774136 182.021 0.759901C182.559 0.749169 183.151 0.760639 183.775 0.793856C184.851 0.852771 185.839 0.852881 186.649 0.794174C187.593 1.11048 188.052 1.16191 188.928 1.07644L189.34 1.05202L189.453 1.11987L189.767 1.10495C190.356 1.09166 190.945 1.07838 191.559 1.07364C192.414 1.10299 193.336 1.18197 194.237 1.30285C194.408 1.32402 194.64 1.39595 194.791 1.45226C194.941 1.50858 195.268 1.67846 195.508 1.78905C195.246 1.86978 194.956 1.94698 194.748 2.03979C194.727 2.05565 194.729 2.07455 194.754 2.09499C194.779 2.11543 194.826 2.13683 194.891 2.15747C194.956 2.17812 195.037 2.19742 195.129 2.21384C195.22 2.23026 195.319 2.24334 195.417 2.25202C195.609 2.27074 195.798 2.28322 195.977 2.28894C196.857 2.29881 197.7 2.29148 198.497 2.267C198.788 2.23247 199.187 2.22919 199.63 2.25769C200.073 2.28618 200.534 2.34482 200.942 2.4243C201.985 2.37658 203.198 2.39068 204.495 2.46561C205.868 2.42004 207.526 2.51219 208.808 2.41235C208.778 2.46255 208.911 2.54899 209.095 2.59879C209.387 2.67444 209.718 2.74454 210.073 2.80614L212.784 2.9264C212.886 2.98824 213.013 3.05084 213.163 3.11339C213.266 3.16279 213.445 3.21114 213.663 3.24818C213.881 3.28521 214.12 3.30803 214.33 3.31179C214.869 3.33012 215.322 3.28914 215.965 3.39038C214.974 3.48607 213.638 3.47336 212.194 3.3545C210.838 3.2641 209.533 3.21892 208.329 3.22065C207.932 3.21996 207.409 3.22524 207.285 3.27992C207.01 3.43447 206.29 3.41004 205.451 3.38153C204.792 3.35032 204.189 3.35382 203.694 3.39175C203.198 3.42967 202.823 3.50093 202.6 3.59967C202.543 3.69506 202.679 3.77648 203.257 3.83198L205.664 4.05456C206.018 4.02594 206.355 3.99207 206.672 3.95308C207.206 3.90129 207.865 3.88707 208.598 3.91154C209.332 3.936 210.119 3.99849 210.9 4.09413C211.299 4.14352 211.698 4.19292 211.987 4.16945C212.24 4.14249 212.474 4.11021 212.686 4.07284C212.729 4.04781 212.746 4.01899 212.737 3.9875C212.89 4.00214 213.044 4.02118 213.192 4.04395C214.381 4.30965 215.301 4.30505 216.137 4.23613C216.363 4.21565 216.535 4.18309 216.764 4.15758C216.993 4.13207 217.074 4.09897 217.282 4.10861C218.943 4.19574 219.422 3.90469 220.821 3.91639C220.89 3.90502 220.932 3.88802 220.944 3.86696C220.957 3.84591 220.939 3.82147 220.893 3.7959C220.794 3.77281 220.679 3.75295 220.56 3.73815C220.44 3.72335 220.32 3.71409 220.209 3.71122C219.565 3.67387 218.996 3.68532 218.6 3.74362C218.319 3.76744 218.022 3.78642 217.71 3.80046L216.308 3.37898C217.666 3.41761 218.95 3.41736 220.131 3.37822C220.389 3.35624 220.825 3.39411 221.188 3.40131L223.855 3.4407C224.404 3.44397 224.871 3.3779 225.636 3.53192C225.636 3.53192 226.141 3.55675 226.276 3.53572C226.411 3.51469 227.008 3.38389 227.364 3.29869C227.778 3.32298 228.351 3.38853 228.609 3.36656C229.059 3.31257 229.448 3.24337 229.771 3.16019L231.382 3.27894C231.38 3.38443 231.321 3.48367 231.206 3.57515C231.081 3.66337 231.085 3.76928 231.219 3.8842C231.353 3.99912 231.612 4.1198 231.977 4.23638L233.568 4.8538C233.827 4.89514 234.104 4.92297 234.361 4.93351C234.617 4.94405 234.84 4.93679 235.001 4.9127C235.685 4.8412 236.452 4.78531 237.137 4.71381C238.02 4.82319 237.793 4.99986 238.435 5.15483L240.515 5.4124C240.832 5.65108 241.155 5.87972 240.19 5.95963C239.999 5.9736 240.128 6.06506 239.953 6.10265C240.703 6.28177 241.527 6.33538 242.288 6.44571C242.587 6.52506 242.838 6.60905 243.027 6.69362C243.235 6.82097 243.657 6.95106 244.202 7.05579C244.746 7.16052 245.369 7.2315 245.937 7.25339C246.889 7.32044 247.864 7.42115 248.819 7.551C249.145 7.59615 249.48 7.62906 249.801 7.64748C250.122 7.66591 250.423 7.66943 250.682 7.65782C251.605 7.63737 252.386 7.56706 252.975 7.45147C253.558 7.35337 254.342 7.30609 255.259 7.31391C256.825 7.50797 257.141 7.80039 258.09 8.05795L256.452 8.08682C256.392 8.18723 256.501 8.31383 255.829 8.31152C255.158 8.3092 255.499 8.40527 255.716 8.5023C255.793 8.5511 255.943 8.6013 256.14 8.64441C256.337 8.68751 256.57 8.72086 256.799 8.73882L258.194 8.863C258.688 8.91026 259.166 8.93044 259.576 8.92133C259.986 8.91221 260.312 8.87416 260.518 8.81134C260.754 8.75169 261.079 8.71133 261.475 8.69276C261.979 8.6441 262.393 8.57173 262.703 8.47839L264.671 8.61438C264.755 8.52058 265.025 8.45481 265.437 8.42819C265.848 8.40157 266.375 8.41573 266.929 8.46828L268.255 8.55175C269.73 8.64282 270.054 8.61284 270.486 8.34838L268.717 7.87602C268.974 7.75159 269.222 7.64223 269.471 7.53287C269.03 7.37724 268.442 7.23005 267.766 7.10624C267.136 6.97319 266.488 6.84434 265.824 6.72017C265.104 6.59329 264.344 6.48296 263.45 6.33993C263.294 6.29366 263.067 6.21169 262.778 6.13271C262.488 6.05597 262.186 5.98074 261.872 5.90732C261.931 5.80691 261.985 5.71655 261.87 5.59999C262.421 5.63718 262.99 5.70223 263.525 5.78926C264.061 5.8763 264.547 5.9826 264.939 6.09856C265.005 6.11913 265.085 6.13844 265.176 6.1552C265.266 6.17197 265.364 6.18579 265.462 6.19572C266.429 6.26697 266.891 6.41583 267.364 6.59834C267.682 6.69163 268.093 6.77449 268.538 6.8354C269.393 6.94126 270.23 7.07723 271.047 7.19462C271.297 7.23373 271.557 7.26593 271.816 7.28988C272.671 7.36603 273.53 7.47251 274.352 7.60391C274.62 7.63731 274.877 7.6815 275.102 7.7328C275.327 7.7841 275.513 7.841 275.645 7.89878C275.441 7.96208 275.332 8.04198 275.322 8.13365C275.287 8.1939 275.887 8.31672 276.17 8.40573C276.454 8.49475 275.898 8.45281 275.709 8.46176C274.934 8.47898 274.79 8.51507 275.254 8.71264C275.409 8.77477 275.512 8.83693 275.557 8.89526C275.601 8.95359 275.586 9.00686 275.512 9.05175C275.402 9.2375 275.067 9.39001 274.837 9.5717C275.194 9.69139 275.791 9.8192 275.856 9.96738C275.887 10.0002 275.954 10.0351 276.05 10.0693C276.146 10.1036 276.269 10.1364 276.412 10.1655C276.787 10.2282 277.128 10.3032 277.408 10.3847C277.689 10.4661 277.901 10.5519 278.029 10.6353C278.071 10.6698 278.172 10.7064 278.312 10.7377C278.453 10.7691 278.622 10.7929 278.785 10.8044C278.981 10.8185 279.156 10.8166 279.274 10.7992C279.393 10.7818 279.445 10.7501 279.422 10.7107C279.426 10.6368 279.401 10.5598 279.344 10.4802C279.377 10.425 279.41 10.3698 279.28 10.2783C279.864 10.3117 280.477 10.3786 281.053 10.4717C281.629 10.5649 282.145 10.6807 282.545 10.8066C282.988 10.9369 283.396 11.0736 283.887 11.226C283.786 11.3967 283.785 11.3967 284.83 11.6985L290.369 11.8457L291.505 12.0456C292.563 12.2198 292.815 12.2079 293.48 12.1178L293.928 12.0331C294.868 12.1496 295.95 12.2837 296.538 12.0655C296.729 12.2077 296.854 12.2554 296.811 12.277C296.53 12.4869 296.042 12.6649 295.367 12.8042C295.195 12.8367 295.073 12.8864 294.873 12.9154C294.226 13.0793 294.075 13.3325 294.453 13.6233C294.641 13.752 294.913 13.8837 295.261 14.0144C294.751 14.1956 294.076 14.3458 293.253 14.4609C292.555 14.5499 291.98 14.6691 291.545 14.8152C291.154 14.9624 290.569 15.073 289.823 15.1408C289.445 15.1696 289.168 15.2264 289.022 15.3056C288.979 15.5201 289.079 15.7496 289.32 15.9892C289.366 16.0622 289.495 16.1409 289.698 16.2193C289.901 16.2978 290.172 16.3737 290.49 16.4412C290.49 16.4412 290.643 16.4925 290.716 16.5232C290.777 16.7829 290.548 17.0117 290.043 17.1943C289.961 17.2461 289.791 17.2836 289.554 17.3026C289.316 17.3216 289.019 17.3214 288.695 17.3022C288.01 17.2712 287.37 17.2674 286.708 17.25C285.994 17.2255 285.365 17.2448 284.887 17.3061C284.41 17.3674 284.101 17.4683 283.994 17.5983C283.987 17.6351 283.966 17.6703 283.931 17.7037C283.911 17.721 283.9 17.7394 283.898 17.759L285.42 18.1845L283.699 18.354C283.598 18.5247 284.424 18.627 284.838 18.7537L284.582 18.8244C284.252 18.8644 283.809 18.7879 283.407 18.7435L283.008 18.6941L282.96 18.7745C282.712 18.8838 281.806 18.7609 281.453 18.8411C281.1 18.9212 281.352 19.0118 281.881 19.0989C282.249 19.1636 282.644 19.2153 283.037 19.2499C283.43 19.2845 283.809 19.3012 284.148 19.2988C284.35 19.2902 284.518 19.2706 284.641 19.2413C285.355 19.1162 286.144 19.0086 287.003 18.9194C287.661 18.8393 288.484 18.8053 289.416 18.8196C289.69 18.8136 290.02 18.8325 290.348 18.8732C290.676 18.9138 290.982 18.9736 291.211 19.0419L291.694 19.0532C291.694 19.0532 291.958 19.1236 291.92 19.1351C291.737 19.3438 291.95 19.5989 292.529 19.8626L292.026 19.8864C291.306 19.862 291.762 20.0209 291.655 20.0992C291.144 20.0844 290.48 20.0183 290.237 20.1176L289.875 20.1104L290.017 20.1281L290.189 20.0955L290.866 20.244C290.545 20.2689 290.313 20.2995 290.03 20.3129C289.873 20.3246 289.749 20.3452 289.664 20.3736C289.579 20.4019 289.535 20.4374 289.534 20.4779C289.535 20.5402 289.451 20.5926 289.289 20.6301C289.128 20.6677 288.895 20.6891 288.612 20.6924C288.275 20.6937 288.082 20.7614 287.884 20.7855L288.743 21.1936C288.743 21.1936 288.316 21.1407 288.549 21.2126L288.578 21.1624L289.099 21.2646C289.474 21.3542 289.736 21.3759 289.958 21.3117C290.179 21.2475 290.129 21.3329 290.235 21.3083C290.196 21.3736 289.955 21.4192 289.749 21.4582C289.51 21.4889 289.24 21.5115 288.944 21.5257C289.477 21.8127 289.503 21.8212 288.724 21.8972C287.945 21.9732 288.214 22.0873 287.562 22.1036C286.91 22.1198 287.651 22.314 288.087 22.3519C288.411 22.3768 288.741 22.4155 289.054 22.4655C289.368 22.5155 289.657 22.5755 289.904 22.6415L289.773 22.8624C289.581 22.8441 289.389 22.8203 289.203 22.7918C288.571 22.6705 287.997 22.5562 287.435 22.6268L287.703 22.7946L285.742 22.6973C285.793 22.8231 286.092 22.9664 286.576 23.0969C286.503 23.1686 286.458 23.2441 286.442 23.3228C286.409 23.3781 286.215 23.3433 286.09 23.3493C285.641 23.3585 285.272 23.3959 285.017 23.4583C284.761 23.5206 284.626 23.6059 284.624 23.7067C284.573 23.792 285.264 23.9691 285.695 23.9633C286.773 23.9803 287.938 24.046 289.128 24.1567C289.853 24.1711 289.956 23.9467 291.149 24.0999C291.173 24.2035 291.02 24.2874 290.714 24.3389C290.407 24.3904 289.964 24.4067 289.451 24.3853C289.743 24.6155 291.358 24.6755 291.43 24.9161C291.028 24.8991 290.597 24.8591 290.182 24.8001C289.766 24.741 289.38 24.665 289.061 24.5795C288.992 24.5584 288.905 24.539 288.809 24.523C288.713 24.5071 288.611 24.495 288.511 24.4881C288.411 24.4811 288.318 24.4794 288.24 24.4832C288.161 24.487 288.1 24.4961 288.062 24.5097C288.286 24.5967 288.532 24.6973 288.813 24.7913C289.094 24.8854 289.161 24.9261 289.364 24.9457C290.873 25.1327 291.591 25.4695 292.897 25.6906C293.239 25.7329 293.282 25.8675 292.985 25.8523C292.703 25.8371 292.447 25.8391 292.247 25.8581C292.047 25.8771 291.91 25.9123 291.851 25.9598C291.632 26.0152 291.359 26.0593 291.039 26.091C292.379 26.4366 293.976 26.742 295.681 26.9785C296.004 27.0252 296.341 27.0537 296.642 27.0598C297.594 27.0601 298.604 27.0875 299.652 27.1415C300.023 27.1562 300.367 27.1548 300.663 27.1374C301.636 27.0962 302.408 27.1865 303.113 27.4409L304.281 27.8442C304.242 27.9094 304.046 27.9822 303.895 28.082L304.808 28.2974L311.768 27.8014L313.165 28.2816L315.169 28.2549C315.322 28.2688 315.476 28.2879 315.624 28.3114C316.03 28.4532 316.346 28.5894 316.786 28.7247C317.226 28.86 318.011 28.8764 318.559 29.0359C319.106 29.1953 319.655 29.1986 320.333 29.2933C320.396 29.4167 320.331 29.5278 320.139 29.6196C320.077 29.7251 319.732 29.7902 319.673 29.8906C319.679 29.9921 319.552 30.0783 319.301 30.1413C319.05 30.2043 318.684 30.2422 318.236 30.2515C316.982 30.4676 315.47 30.6215 313.745 30.7085C313.594 30.7148 313.468 30.7294 313.376 30.7514C313.284 30.7734 313.228 30.8023 313.211 30.8363C313.213 30.9348 313.098 31.0199 312.874 31.0854C312.65 31.1509 312.323 31.1951 311.916 31.2148C311.808 31.2188 311.726 31.2312 311.681 31.2504C311.527 31.2628 311.414 31.2865 311.355 31.3193C311.295 31.3521 311.29 31.3928 311.341 31.4375C311.391 31.4822 311.495 31.5294 311.642 31.5745C311.79 31.6196 311.975 31.6611 312.182 31.695C312.481 31.7497 312.787 31.8019 313.098 31.8516C313.08 31.8818 312.772 31.8866 312.817 31.9138C312.939 32.0004 312.967 32.0816 312.899 32.1508C312.832 32.2201 312.67 32.2756 312.427 32.3128L314.091 33.0146C315.1 33.1119 316.091 33.2767 316.874 33.4779C316.875 33.5109 316.83 33.5385 316.743 33.5581C316.657 33.5776 316.531 33.5883 316.38 33.5892C315.974 33.6036 315.59 33.6315 315.153 33.6474C314.886 33.6592 314.663 33.6853 314.498 33.7241C314.334 33.763 314.23 33.8137 314.193 33.8734L315.17 34.1345C314.857 34.1982 314.625 34.2287 314.418 34.2678C314.535 34.3498 314.737 34.4347 315.007 34.5158C315.277 34.5969 315.609 34.6721 315.976 34.7355C316.074 34.7486 316.175 34.7581 316.271 34.7636C316.368 34.7691 316.459 34.7704 316.538 34.7674C317.294 34.6779 318.179 34.8359 319.039 34.9855C319.898 35.135 320.364 35.2251 320.999 35.3414L322.213 35.3571C322.52 35.4121 322.794 35.4769 323.013 35.5461C323.233 35.6154 323.391 35.6872 323.475 35.7559C323.409 35.8663 322.834 35.8058 322.491 35.8172C321.676 35.8859 320.606 35.8713 319.457 35.7756C319.172 35.7403 318.88 35.7688 318.603 35.7722C318.005 35.786 317.43 35.8083 316.881 35.8392C316.52 35.868 316.182 35.9036 315.87 35.9457C315.787 36.0863 317.099 36.1949 316.354 36.2643C316.611 36.2961 316.707 36.3403 316.839 36.3243C317.683 36.4156 318.515 36.4607 319.238 36.4545C320.626 36.4351 322.202 36.4991 323.837 36.6414C325.602 36.7888 327.294 36.8506 328.775 36.8219C329.34 36.8203 329.97 36.8504 330.619 36.9102C331.385 36.9929 332.146 37.0449 332.853 37.0628C333.087 37.0635 333.347 37.0776 333.613 37.104C333.879 37.1303 334.143 37.1683 334.383 37.2147C334.363 37.2499 334.133 37.2754 334.184 37.2925C334.915 37.5554 335.212 37.8293 336.337 38.0979C337.106 38.1932 337.989 38.3026 338.492 38.1763C338.995 38.05 338.815 37.9414 337.814 37.618C338.031 37.6134 338.293 37.6285 338.553 37.6607C338.813 37.693 339.056 37.7403 339.238 37.7945L340.104 38.0364L340.884 38.2678C340.816 38.3832 340.762 38.4736 340.706 38.569C340.616 38.6703 340.715 38.7936 340.986 38.9217C341.15 38.9916 341.293 39.0615 341.413 39.1308C341.9 39.4079 342.042 39.6699 341.821 39.8872C341.397 40.1998 340.807 40.4874 340.057 40.7467C339.266 40.9989 338.833 41.3171 338.18 41.592C337.848 41.7172 337.444 41.8294 336.972 41.9274C336.079 42.1454 335.1 42.3529 334.203 42.576C333.306 42.799 332.294 42.9592 331.298 43.1431C329.815 43.3613 328.213 43.5497 326.499 43.7074C325.439 43.8455 324.35 43.9801 323.369 44.1388C322.21 44.3177 320.849 44.4462 319.32 44.5211C317.969 44.6107 316.762 44.7433 315.722 44.9162C315.613 44.9349 315.527 44.9587 315.466 44.9869C315.279 45.1632 314.754 45.2875 313.972 45.3407C314.019 45.3924 314.08 45.4449 314.154 45.498C314.262 45.5613 314.285 45.6206 314.219 45.6681C314.152 45.7156 314 45.7492 313.782 45.7645C313.156 45.8082 312.636 45.8823 312.245 45.9837C312.102 46.0092 312.013 46.0462 311.986 46.0917C311.959 46.1372 311.995 46.1897 312.091 46.2448C312.175 46.3015 312.182 46.3537 312.108 46.3946C312.035 46.4355 311.886 46.4632 311.679 46.4741C311.15 46.5278 310.583 46.571 309.982 46.6034C308.704 46.6749 307.217 46.674 305.611 46.6009C305.44 46.5797 305.268 46.6123 305.068 46.5876C303.933 46.5056 302.878 46.4929 302.032 46.551C301.04 46.5737 300.003 46.5692 298.957 46.5798C297.446 46.5727 296.052 46.6158 294.814 46.7079C293.399 46.6189 292.604 46.7737 291.409 46.7767C290.307 46.7926 289.261 46.8307 288.284 46.8907C286.708 46.9704 285.137 47.0399 283.584 47.1331C282.126 47.1776 280.784 47.2625 279.581 47.3864C279.119 47.4424 278.284 47.3552 277.97 47.4725C277.656 47.5899 277.022 47.5761 276.509 47.615L274.893 47.7112C274.615 47.7341 274.309 47.7486 273.98 47.7545C272.477 47.7623 271.437 47.919 270.042 47.951L269.899 47.9334C267.422 48.1663 264.587 48.2942 261.479 48.3132C259.663 48.3846 257.677 48.3812 255.75 48.4336C255.29 48.5383 254.205 48.4093 253.628 48.5049C253.052 48.6006 252.11 48.5379 251.367 48.5536C250.624 48.5693 249.897 48.6087 249.103 48.6073C248.413 48.6077 247.831 48.6504 247.409 48.7316C246.445 48.8656 245.271 48.9444 243.938 48.9645C242.174 48.9993 240.506 49.0784 238.712 49.061C238.738 49.1587 238.628 49.2418 238.394 49.3018C238.159 49.3618 237.809 49.3965 237.378 49.4024C235.46 49.4397 233.721 49.5368 231.778 49.5655L231.258 49.5658L225.445 49.6219C223.879 49.6327 222.37 49.6506 220.772 49.6629C220.174 49.5888 220.16 49.7164 219.746 49.6921C219.63 49.6292 219.494 49.6016 219.29 49.6356L219.245 49.7109L212.612 49.8108C210.014 49.8839 207.282 49.9058 204.439 49.8764C203.764 49.8838 203.134 49.9087 202.56 49.9508C202.027 49.9662 201.472 49.973 200.896 49.9712C200.119 49.9522 199.359 49.9426 198.62 49.9425C196.676 49.9712 194.637 49.9557 192.509 49.9347C190.38 49.9136 188.768 49.951 186.874 49.9482C185.591 49.9456 184.314 49.9329 182.986 49.9032C182.352 49.8893 181.571 49.8141 180.915 49.7867C180.258 49.7593 180.044 49.7597 179.957 49.8029C179.672 49.9238 178.953 49.8456 178.379 49.8338C177.26 49.8137 177.101 49.7724 176.797 49.4599L178.171 49.3606C178.507 49.3286 178.931 49.3229 179.4 49.3443C179.869 49.3656 180.369 49.4132 180.851 49.4824C181.04 49.5121 181.238 49.5355 181.433 49.5514C181.629 49.5672 181.817 49.5752 181.988 49.5748C183.375 49.5579 184.741 49.5223 186.073 49.4933L186.268 49.4743L186.28 49.1956C186.104 49.1683 185.921 49.1456 185.739 49.1286L179.057 48.9477C177.524 48.9033 175.932 48.8032 174.427 48.7623C172.923 48.7214 172.112 48.6965 170.944 48.6542C170.452 48.6302 169.949 48.5986 169.441 48.5596C169.47 48.5328 169.487 48.5043 169.491 48.4743C169.518 48.4291 169.554 48.3689 169.338 48.3206C169.102 48.2523 168.787 48.1941 168.456 48.1574C168.145 48.1332 167.843 48.1195 167.563 48.1169C166.208 48.0935 164.66 47.9463 163.249 47.7066L162.757 47.8666C160.639 47.7767 158.49 47.6883 156.278 47.603C155.835 47.5797 155.37 47.535 154.918 47.4723C154.433 47.4123 153.988 47.287 153.478 47.2185C152.974 47.1692 152.474 47.1307 151.986 47.1038C152.118 47.0627 152.292 47.0298 152.503 47.0061C152.71 46.9979 152.861 46.9721 152.934 46.9327C153.007 46.8933 152.998 46.8422 152.908 46.7869C152.75 46.6919 152.681 46.6025 153.024 46.5911C153.341 46.5694 153.568 46.5225 153.678 46.4559C153.788 46.3893 153.776 46.3058 153.644 46.2152C153.587 46.1623 153.546 46.1104 153.522 46.06L153.38 46.0423C152.91 45.8548 151.972 45.7871 151.298 45.6336C150.98 45.5891 150.651 45.5635 150.363 45.5609C149.618 45.5279 148.892 45.5135 148.122 45.472C147.754 45.4529 147.369 45.418 146.99 45.3695C146.449 45.3025 146.392 45.2954 146.078 45.0517C146.566 45.056 146.952 45.0195 147.173 44.9486C147.393 44.8777 147.433 44.7767 147.287 44.6626C146.884 44.4133 146.459 44.1505 144.637 43.9734C145.231 43.9646 145.803 43.9473 146.35 43.9214C146.509 43.9158 146.628 43.8975 146.691 43.8689C146.755 43.8403 146.759 43.8028 146.704 43.7614C146.648 43.7199 146.536 43.6766 146.382 43.6371C146.228 43.5977 146.04 43.564 145.842 43.5405C144.88 43.3995 143.877 43.3051 142.945 43.268C142.16 43.2516 141.451 43.2608 140.534 43.2604L139.451 43.1263C139.469 43.0962 139.31 43.0549 139.351 43.0384C139.626 42.8838 139.929 42.7328 140.242 42.5667C139.743 42.477 139.31 42.3688 138.994 42.2543C138.678 42.1399 138.491 42.0239 138.454 41.9196C138.427 41.8881 138.434 41.8595 138.475 41.8356C138.515 41.8118 138.588 41.7933 138.689 41.7816C138.974 41.7614 139.194 41.7229 139.332 41.669C139.47 41.6151 139.522 41.5472 139.485 41.4706L138.643 41.1885C136.108 40.9872 133.619 40.8434 131.221 40.7597L129.057 40.6965C128.796 40.621 128.877 40.5879 129.123 40.586C129.368 40.5841 130.059 40.605 130.542 40.6163C130.959 40.6311 131.329 40.6214 131.616 40.5881C131.904 40.5548 132.099 40.499 132.184 40.4262L131.457 40.1045C131.493 40.0442 131.543 39.9589 131.937 39.9646C132.207 39.9576 132.405 39.9273 132.501 39.8785C132.596 39.8297 132.583 39.7653 132.464 39.6957C132.446 39.6453 132.473 39.5994 132.544 39.5601C133.127 39.5569 133.707 39.5586 134.236 39.5433C134.482 39.5382 134.69 39.5196 134.846 39.4886C135.001 39.4577 135.101 39.4151 135.137 39.3639C135.156 39.314 135.11 39.257 135.001 39.1978C134.893 39.1385 134.726 39.0785 134.514 39.0227C133.685 38.9536 132.927 38.9527 132.405 39.0202C132.219 39.0731 131.921 39.102 131.549 39.1031C131.177 39.1042 130.749 39.0774 130.322 39.0263C129.833 38.9674 129.345 38.9415 128.946 38.9532C128.546 38.965 128.262 39.0137 128.144 39.0906C127.641 39.0607 127.196 39.0379 126.757 39.0051C126.239 38.9636 125.749 38.9514 125.341 38.9698C124.687 38.9827 123.983 38.9751 123.244 38.9472C121.114 38.8774 118.981 38.8127 116.919 38.7836C116.374 38.7753 115.902 38.7977 115.362 38.7794C114.823 38.761 114.396 38.8106 113.721 38.7108C113.593 38.6953 113.463 38.6853 113.343 38.6817C113.223 38.6781 113.116 38.6809 113.03 38.6899C111.845 38.7688 110.456 38.7799 108.944 38.7227C106.872 38.7087 104.725 38.669 102.651 38.66C102.042 38.6678 101.467 38.6885 100.932 38.722C100.525 38.7423 100.098 38.756 99.654 38.7631C99.3138 38.7695 98.9885 38.7507 99.0459 38.8602C99.1033 38.9697 98.5935 38.9012 98.2997 38.881C97.2903 38.8279 96.2586 38.756 95.2162 38.6662C94.1891 38.5685 93.1827 38.5117 92.2573 38.4991C91.5889 38.4917 90.8996 38.5195 90.0403 38.37C90.073 38.3148 90.1057 38.2595 90.2928 38.2019C89.592 38.0432 88.7924 37.9067 87.9602 37.8036C87.1279 37.7005 86.2869 37.6339 85.5067 37.6091L84.4309 37.3088C84.1661 37.2735 83.8957 37.2479 83.6362 37.2333C83.3767 37.2188 83.1335 37.2157 82.9215 37.2242C82.7576 37.2286 82.5579 37.2174 82.3591 37.1928C82.1602 37.1682 81.9755 37.1317 81.8389 37.0902C81.6346 37.0373 81.3851 36.9917 81.1216 36.959C80.8581 36.9264 80.5923 36.9082 80.3575 36.9067C79.6183 36.874 78.8293 36.7986 78.0712 36.6882C77.8745 36.6235 77.7512 36.5566 77.7166 36.4958C77.682 36.435 77.7376 36.383 77.8765 36.3461C78.1004 36.2811 78.2262 36.1981 78.2461 36.1024C78.266 36.0067 78.1797 35.9002 77.9924 35.7893C77.8965 35.7212 77.8645 35.6567 77.8982 35.5998C77.932 35.5428 78.0308 35.4946 78.1888 35.4579C78.7785 35.2884 78.6208 35.1935 77.6559 34.9123C77.4992 34.8654 77.3103 34.8216 77.1012 34.7836C76.892 34.7457 76.6673 34.7144 76.4411 34.6918C75.9105 34.6459 75.3872 34.6119 74.8807 34.5901C74.5958 34.5548 74.3036 34.5833 73.9754 34.5696C72.3341 34.5011 72.0939 34.3905 71.5623 34.1522L71.175 33.9803C70.4565 33.841 69.6708 33.7253 68.8744 33.6416C68.0779 33.5579 67.2907 33.5082 66.5693 33.4961C66.2825 33.4951 65.9528 33.4713 65.6308 33.4283C64.5828 33.2968 63.5214 33.2057 62.5171 33.1612C61.8912 33.1362 61.2165 33.0714 60.5741 32.9746C59.9317 32.8779 59.3488 32.7532 58.8956 32.6157C58.4884 32.4918 57.9557 32.3806 57.3716 32.2976C56.6879 32.2129 56.6246 32.1135 57.0064 32.0368C57.3882 31.9602 58.0277 31.8615 58.5953 31.7809C58.7928 31.7536 58.9152 31.709 58.9488 31.6523C58.9824 31.5955 58.926 31.5289 58.7857 31.4596C58.6957 31.3412 58.6801 31.2288 58.7393 31.1252C58.7709 31.0821 58.7491 31.0327 58.6752 30.9804C58.6013 30.928 58.4772 30.8739 58.3111 30.8216C58.145 30.7694 57.9408 30.7203 57.7123 30.6775C57.4838 30.6348 57.2363 30.5995 56.9866 30.574C55.9325 30.4434 54.9069 30.3164 53.832 30.221C53.3815 30.176 52.9315 30.1203 52.493 30.0551C51.5954 29.8941 50.6351 29.7605 49.668 29.6621C49.2089 29.6182 48.7602 29.5413 48.4188 29.4481C47.3419 29.1972 46.3497 28.9333 45.4601 28.6614C45.2456 28.577 44.9651 28.4947 44.6359 28.4196C44.3068 28.3446 43.9363 28.2783 43.5475 28.2251C43.2341 28.1863 42.979 28.1008 42.7375 28.0439C42.562 27.9123 42.5432 27.7904 42.683 27.6899C42.8228 27.5894 43.1166 27.5135 43.5367 27.4693C43.9351 27.4162 44.308 27.3546 44.6524 27.2895C45.0675 27.2369 45.5611 27.2052 46.1146 27.1958C46.7703 27.1675 47.2551 27.0867 47.5058 26.9639C45.7111 26.7416 44.0043 26.4225 42.4311 26.4971L41.2358 26.2951C41.2834 26.2148 41.325 26.1445 41.3637 26.0792C41.648 25.9604 41.7368 25.8106 41.6226 25.6425C41.5284 25.5611 41.5369 25.4871 41.6472 25.4279C41.7575 25.3687 41.9656 25.3264 42.2506 25.3053C43.9385 25.0886 45.8906 24.9424 47.4735 24.6965C47.9698 24.6504 48.5508 24.6294 49.1921 24.6345C49.8124 24.6198 49.7865 24.5088 49.0726 24.3718C48.6719 24.3003 48.2634 24.2317 47.8488 24.1664C46.0205 24.1555 45.2757 24.4836 43.1892 24.3923L42.2222 23.9599C41.9607 23.9532 41.7069 23.9506 41.4624 23.952L37.964 24.1277C37.6726 24.1365 37.4457 24.1666 37.3093 24.2144C37.1728 24.2623 37.1321 24.3261 37.1918 24.3985C37.2155 24.4872 37.1673 24.5685 37.049 24.6395C36.9727 24.6893 37.0215 24.7554 37.1847 24.8234C37.5526 24.9767 37.0806 24.9991 36.7826 25.0376C36.7064 25.0414 36.6185 25.041 36.5241 25.0364C36.4297 25.0319 36.3306 25.0233 36.2325 25.0112C36.1345 24.999 36.0394 24.9836 35.9529 24.9657C35.8664 24.9478 35.7901 24.9279 35.7285 24.9071C35.2034 24.7612 34.7441 24.6073 34.2279 24.4464C34.5943 24.2924 34.1631 24.0396 34.735 23.9002C34.799 23.8724 34.8246 23.8385 34.8102 23.8006C34.7959 23.7627 34.7419 23.7215 34.6516 23.6797C34.4187 23.5718 34.3078 23.4667 34.3301 23.3748C34.3523 23.2829 34.5069 23.2076 34.7782 23.1565L34.811 23.1013C34.0953 22.9157 34.2849 22.7505 34.0039 22.554L33.3154 22.4257C31.6027 22.1165 31.5997 22.1216 30.1252 22.1329C29.8279 22.0153 30.2056 21.9974 30.4887 21.984L32.8604 21.852C34.4111 21.7638 36.0068 21.7028 37.7391 21.6694C39.4713 21.6361 41.4025 21.525 43.1929 21.4449C43.2835 21.4387 43.3527 21.4265 43.3949 21.4092C43.437 21.3919 43.4508 21.3701 43.4353 21.3456C43.3641 21.3191 43.2709 21.2935 43.1627 21.2708C43.0544 21.2481 42.9338 21.2287 42.8097 21.2142C42.24 21.1437 41.6554 21.0982 41.0482 21.0392L39.9163 20.9367L39.568 20.802C39.3414 20.72 39.1866 20.62 38.8851 20.5611C38.6366 20.5172 38.367 20.4838 38.1041 20.4645C37.8412 20.4453 37.5948 20.4407 37.3906 20.4514C36.8242 20.4783 36.3119 20.5172 35.771 20.5526C35.2302 20.588 34.9321 20.6266 34.4631 20.6439C33.5103 20.6518 32.5894 20.6727 31.7045 20.7065C30.9592 20.7863 30.2698 20.8809 29.6407 20.9897C29.2483 21.0328 28.8813 21.0843 28.2112 21.0283C27.8932 20.9774 27.6191 20.9107 27.4371 20.8398C27.2552 20.7689 27.1774 20.6985 27.2174 20.6411C27.2534 20.5961 27.3552 20.5605 27.5132 20.5376C27.6712 20.5148 27.8802 20.5054 28.1205 20.5105C28.7931 20.5022 29.4152 20.4743 29.974 20.4275C30.7518 20.3425 31.6987 20.3059 32.7593 20.3198C33.1191 20.332 33.3602 20.2864 33.6748 20.2715C33.9894 20.2565 34.256 20.2195 34.6068 20.2468C35.6966 20.3171 36.2191 20.2094 36.8722 20.1394C37.0933 20.1083 37.2302 20.0582 37.268 19.9944C37.3058 19.9306 37.243 19.8557 37.0864 19.7779C36.785 19.6229 36.4163 19.4671 35.986 19.3129C35.7645 19.237 35.4808 19.165 35.1571 19.1025C34.8334 19.04 34.4784 18.9886 34.1201 18.9524C33.9057 18.8575 33.7913 18.7642 33.7873 18.6809C33.7832 18.5976 33.8898 18.527 34.0971 18.4753C34.6256 18.3576 35.0941 18.2378 36.2783 18.3036C36.8351 18.3287 37.359 18.3335 37.8293 18.3179C38.8726 18.2964 40.076 18.3434 41.3262 18.4546C41.6496 18.483 41.9676 18.5025 42.2706 18.5122C44.4318 18.5805 46.491 18.6146 48.5562 18.6387C49.6502 18.6502 50.7532 18.6467 51.8952 18.6804C54.5735 18.7534 57.0116 18.7159 59.5967 18.7397C60.9507 18.7519 62.1625 18.7027 63.1688 18.5947C63.3648 18.5584 63.533 18.5162 63.6717 18.4683C63.0049 18.3428 62.2725 18.2434 61.5446 18.1797C60.8166 18.116 60.1177 18.09 59.5146 18.1044C59.1831 18.1395 58.7545 18.1459 58.2768 18.1229C57.7991 18.0999 57.291 18.0484 56.809 17.974L58.2101 17.932C59.1391 17.9124 60.0907 17.9063 60.9942 17.878C62.4296 17.8295 63.76 17.7518 65.2465 17.7203C66.4466 17.6914 67.5205 17.6174 68.4345 17.5008C69.0948 17.4157 69.849 17.3554 70.6817 17.3211C71.2735 17.3027 71.2735 17.3027 71.6519 17.1287C71.3517 17.016 70.9635 17.0003 70.5979 16.9981C68.4056 16.9273 66.3193 16.9148 64.3815 16.9611C63.4038 16.9652 62.5364 17.0129 61.821 17.102C61.6459 17.1396 61.1977 17.1218 60.838 17.1096C59.7103 17.0911 58.6326 17.0964 57.6176 17.1257C56.2144 17.1746 54.6515 17.163 52.9898 17.0915C52.6747 17.0039 53.0374 17.0111 53.0552 16.981C54.3423 16.9249 55.6038 16.8602 56.9164 16.8125C57.2752 16.7956 57.6587 16.7872 58.0627 16.7875C59.5708 16.817 60.8275 16.7352 61.6568 16.5536C61.6985 16.4833 62.244 16.4916 62.4851 16.446C62.6037 16.4065 62.6826 16.3601 62.7197 16.308C62.3685 16.1783 61.9714 16.1776 61.6657 16.1774C60.7785 16.1919 59.9251 16.2194 59.1095 16.2596C58.3513 16.298 57.512 16.3082 56.6144 16.2901C55.9519 16.2727 55.3856 16.2996 54.7172 16.2923C54.3546 16.2768 53.9793 16.252 53.5989 16.2184C54.0225 16.128 54.5982 16.0724 55.2857 16.0555C55.8069 16.0015 56.4587 15.9852 56.5421 15.8447C56.2959 15.7441 56.0216 15.7425 55.8013 15.7529C55.3429 15.7525 54.9001 15.7589 54.4752 15.7719C53.5743 15.8005 52.5988 15.8009 51.5694 15.7731C51.0273 15.7627 50.5129 15.7658 50.0349 15.7824C48.9515 15.8045 47.9132 15.8537 46.9212 15.8764C44.8892 15.8996 43.0359 15.9826 41.0834 16.0264C40.6489 16.0372 40.2593 16.0752 39.6866 16.0097C39.1139 15.9441 39.0884 15.9356 39.0208 15.8949C38.8605 15.827 38.8119 15.7611 38.8851 15.711C38.9987 15.6642 39.22 15.6381 39.5096 15.6375C41.255 15.563 42.9105 15.4584 44.4657 15.3244C45.1501 15.2975 45.7498 15.2428 46.2438 15.162C46.6356 15.1063 47.1003 15.0695 47.6235 15.0526C48.3844 15.0124 49.1776 14.9829 49.9999 14.9643C50.3825 14.9543 50.7078 14.9245 50.9568 14.8767C51.2057 14.8289 51.3732 14.7639 51.4493 14.6858L50.4412 14.4262C50.2828 14.4141 50.1257 14.4036 49.9705 14.3949L41.6031 14.5818L40.7745 14.587C39.8662 14.5715 39.6443 14.5332 38.7828 14.2325C40.7489 14.1618 42.2944 13.9556 43.2655 13.6345C43.0321 13.5999 42.7929 13.5703 42.5533 13.5463C40.982 13.4703 39.4968 13.4501 38.1546 13.4865C37.3574 13.4901 36.5376 13.4802 35.7149 13.4753C35.9555 13.3273 36.8773 13.3714 37.4781 13.338C38.9136 13.2858 40.183 13.1779 41.2457 13.0179C41.6121 12.9555 42.0705 12.9155 42.5999 12.9C43.1297 12.8946 43.5722 12.8568 43.889 12.7899C44.2058 12.723 44.3872 12.629 44.4175 12.5161C44.4674 12.4139 44.575 12.3189 44.7385 12.2325C44.4491 12.11 43.9896 11.9927 43.4462 11.9026C42.9028 11.8125 42.3129 11.7557 41.7872 11.7431C40.6648 11.6926 39.5006 11.61 38.3244 11.4974C37.7384 11.4406 37.1639 11.408 36.638 11.4017C36.1743 11.3969 35.6472 11.3559 35.1371 11.2849C34.627 11.214 34.162 11.117 33.813 11.0087C33.3418 10.8749 32.9021 10.7396 32.4624 10.6043C32.0228 10.469 31.5126 10.2981 30.9993 10.1321C30.5468 10.1062 30.1061 10.0895 29.6833 10.0823C29.3544 10.0884 28.9705 10.0703 28.5771 10.0302C28.1837 9.99003 27.797 9.92952 27.4629 9.8558C27.6589 9.78307 27.8804 9.7189 28.1139 9.63464C27.7935 9.52337 27.5612 9.40991 27.4311 9.30114C27.301 9.19239 27.2759 9.09061 27.3573 9.00204C27.4049 8.92171 27.0566 8.78696 26.9363 8.68044C26.7814 8.58862 26.7523 8.50292 26.8528 8.43459C26.9533 8.36626 27.1788 8.31849 27.4997 8.29754C27.8976 8.25887 28.2215 8.20064 28.458 8.12523C28.5362 8.10565 28.5761 8.07884 28.5738 8.04725C28.5716 8.01566 28.5274 7.9803 28.4453 7.94439C28.3631 7.90849 28.2456 7.87319 28.1036 7.84172C27.9616 7.81026 27.7995 7.78363 27.6322 7.76428C27.1198 7.70942 26.6108 7.67386 26.1346 7.65964C25.3143 7.63348 24.529 7.61706 23.7787 7.61035C22.9488 7.60026 22.0257 7.53798 21.1029 7.42984C20.2767 7.32751 19.536 7.23578 19.132 7.04024C18.7281 6.8447 18.0822 6.85094 17.5855 6.70859C17.8645 6.58027 18.3604 6.49112 19.0231 6.45012C19.4568 6.43549 19.8188 6.39708 20.0859 6.33736C20.353 6.27764 20.5193 6.19792 20.5741 6.10332L19.0663 5.70641C17.8621 5.51954 17.1959 5.66336 15.8948 5.58844L17.2354 5.44192C17.2623 5.42744 17.2724 5.41043 17.2652 5.39171C17.135 5.09537 16.9279 5.03199 15.5575 4.86765L14.7883 4.77239L13.5709 4.65934C13.376 4.5986 13.2411 4.53527 13.1799 4.47567C13.1186 4.41606 13.1331 4.36228 13.2218 4.3197C13.4002 4.24809 13.4544 4.15659 13.3795 4.05361C13.2614 3.9854 13.2517 3.92252 13.352 3.87587C13.4522 3.82922 13.6562 3.80176 13.9284 3.79826C14.1457 3.79283 14.1618 3.714 14.28 3.66935C14.3974 3.60783 14.5985 3.56062 14.8693 3.53093C15.1402 3.50124 15.4746 3.48977 15.8497 3.49732C16.9558 3.50348 17.9949 3.48038 18.9485 3.42844L18.7776 3.40727C19.7715 3.45287 20.7008 3.4584 21.5201 3.42359C22.3411 3.37978 23.3948 3.40788 24.2668 3.38116C24.9768 3.38729 25.5173 3.32665 25.7737 3.21212C26.022 3.10275 26.9242 3.12828 27.6151 3.14918C28.0244 3.16271 28.42 3.16844 28.7976 3.1663C29.3045 3.14155 29.9383 3.16489 30.5933 3.23242C30.7898 3.25317 30.9834 3.26416 31.1554 3.26431C32.8204 3.2927 34.4825 3.3261 36.125 3.34091C36.5041 3.33238 36.9487 3.35192 37.4065 3.39724C37.599 3.41691 37.7862 3.42507 37.9432 3.42059C40.5385 3.37559 43.4672 3.49042 46.0116 3.42831C46.3199 3.41365 46.6614 3.4106 47.0261 3.41924C47.8458 3.45573 48.5576 3.43225 49.0534 3.35238C49.3209 3.30989 49.6639 3.28648 50.0605 3.28364C50.4571 3.2808 50.8985 3.29858 51.3567 3.33586C52.1191 3.38522 52.8238 3.39057 53.3963 3.35136C54.5126 3.31512 55.6865 3.30022 56.9088 3.30677C57.2833 3.31312 57.6126 3.29903 57.871 3.26562C58.1294 3.23221 58.3101 3.18037 58.399 3.11411C58.0988 3.00148 57.7706 2.98778 57.4589 2.99768C56.251 2.97201 55.046 2.94133 53.8605 2.92923C52.7995 2.89469 51.7814 2.88413 50.8212 2.89771C50.3445 2.91303 49.7496 2.87809 49.1664 2.80053C48.4516 2.70229 47.7154 2.65349 47.1067 2.66398C46.6554 2.66659 46.179 2.65813 45.6844 2.63873C45.3679 2.61532 45.0434 2.57514 44.7443 2.52229C44.6257 2.49934 44.4965 2.48004 44.3651 2.46563C44.2337 2.45122 44.103 2.44203 43.9813 2.43862C43.8596 2.43521 43.7495 2.43765 43.6581 2.44582C43.5668 2.45399 43.4963 2.46769 43.4509 2.48605C42.993 2.63951 41.9691 2.56119 41.0924 2.54422C39.7785 2.28449 38.8006 2.43822 37.5726 2.29152C37.4755 2.28179 37.3798 2.2759 37.2914 2.27422C37.2031 2.27254 37.1239 2.2751 37.0585 2.28173C34.6822 2.37003 31.9125 2.29645 29.4174 2.32694C29.1423 2.3314 28.8229 2.31611 28.4956 2.28283C26.3567 2.06251 24.3002 1.99997 22.7283 2.10742C22.537 2.1171 22.3194 2.11751 22.0854 2.10864C21.0106 2.02108 19.9828 1.98617 19.0878 2.00682C17.6851 2.00015 16.3364 2.00556 14.9111 1.98532C13.9286 1.95652 13.0668 1.98729 12.4118 2.07456C12.391 2.1097 11.9547 2.07183 11.6205 2.06816C11.4283 1.97969 11.2617 1.89978 11.0635 1.82134C10.8864 1.72431 10.621 1.62612 10.2855 1.53343C9.95003 1.44074 9.55227 1.35572 9.11903 1.28412C8.37833 1.19238 8.30425 1.05926 8.82255 1.01028C10.1585 0.848246 11.8383 0.781927 13.7386 0.81619C15.3271 0.818928 16.9442 0.825203 18.5552 0.84151C19.4949 0.8555 20.4855 0.886577 21.3997 0.892018C21.7082 0.903974 22.025 0.921592 22.347 0.944685C22.7421 0.978168 23.1257 0.996411 23.4772 0.998436C24.6058 0.970239 25.8653 0.994804 27.1956 1.07096C27.6829 1.08756 28.1507 1.09316 28.5923 1.08766C29.6369 1.06699 30.7694 1.0822 31.9598 1.1329C32.6997 1.16148 33.417 1.17643 34.1045 1.17758C34.3473 1.1807 34.545 1.15669 34.7789 1.17488C36.8373 1.36515 38.2948 1.22771 40.1474 1.30088C41.0478 1.32128 41.908 1.32134 42.716 1.30105C44.2927 1.30203 45.9135 1.32289 47.5717 1.36355C49.7644 1.43034 51.7964 1.40716 53.89 1.43474C54.3034 1.44054 54.7025 1.43955 55.0844 1.43178C56.9424 1.38046 58.9605 1.39134 61.0894 1.46417C61.5728 1.47469 62.007 1.46182 62.3647 1.42639C62.7225 1.39095 62.9961 1.3337 63.1685 1.25822C63.2414 1.20642 63.1942 1.13913 63.0359 1.06934C62.7731 0.980214 62.4764 0.892889 62.1506 0.808803L50.2999 0.526648C49.8022 0.511914 49.3168 0.503982 48.8463 0.502885C47.4622 0.500433 46.0356 0.478483 44.5735 0.437146C43.1287 0.398314 41.7485 0.405209 40.3487 0.393518C39.9364 0.389602 39.5132 0.380362 39.0808 0.365823C36.1582 0.250767 33.3084 0.180492 30.5514 0.155503C29.3915 0.151955 28.1384 0.0991521 26.956 0.0820363C25.7735 0.0649205 24.1565 0.0586538 22.7538 0.0519844L18.4109 0.0530085C17.5567 0.0496035 16.725 0.0597629 15.8963 0.0649073C14.8907 -0.302151 14.5441 -0.388185 13.2022 -0.548999C12.7431 -0.608318 12.2761 -0.643719 11.856 -0.651055C10.5239 -0.622038 8.85244 -0.742826 7.5892 -0.726835C6.82694 -0.734723 6.18013 -0.693946 5.71499 -0.608679C5.3112 -0.54176 4.84948 -0.48881 4.33693 -0.450627C2.93289 -0.764634 2.80915 -0.968575 3.86531 -1.04794C4.15146 -1.06639 4.54561 -1.06068 4.75225 -1.09976C4.87081 -1.12355 5.03278 -1.13716 5.22525 -1.13951C5.41772 -1.14187 5.63536 -1.1329 5.8611 -1.11331C6.57358 -1.06193 7.24137 -1.04984 7.79748 -1.07827C8.32084 -1.1159 8.96236 -1.1144 9.6602 -1.0739C10.173 -1.01039 10.6237 -1.10007 11.0672 -1.12598C11.5107 -1.15189 11.8746 -1.19843 12.5672 -1.12881C12.6941 -1.11495 12.82 -1.10663 12.9353 -1.10449C13.0507 -1.10235 13.1524 -1.10644 13.2327 -1.11646C13.9766 -1.16129 14.8643 -1.15658 15.8238 -1.10271C17.2954 -1.04969 18.6761 -1.04771 19.918 -1.09681C20.6614 -1.13978 21.2953 -1.21598 21.7947 -1.32243C21.9309 -1.35804 22.133 -1.37939 22.3819 -1.38444C23.6314 -1.36222 24.9882 -1.27863 26.3647 -1.13904C26.8833 -1.08311 27.4012 -1.03887 27.9074 -1.00727C28.9477 -0.937048 29.9538 -0.897703 30.8961 -0.89039C32.2652 -0.889232 33.6907 -0.862214 35.1599 -0.809586C36.0666 -0.780283 36.9403 -0.769467 37.7705 -0.777258C38.6239 -0.780929 39.5351 -0.758578 40.4834 -0.710719C41.4264 -0.67172 42.2574 -0.694191 42.8763 -0.775411C43.0801 -0.819178 43.2442 -0.871151 43.3657 -0.930359C41.9849 -1.12302 40.5569 -1.22094 39.3692 -1.20438C38.9181 -1.21715 38.5435 -1.20426 38.0681 -1.27931L38.0532 -1.2542C37.9586 -1.23792 37.8159 -1.23407 37.6522 -1.24341C37.4886 -1.25275 37.3155 -1.2746 37.1659 -1.30482C37.2224 -1.40021 37.2759 -1.49058 37.3146 -1.55585C38.2196 -1.54434 39.0983 -1.54527 39.9462 -1.55865C40.6609 -1.57791 41.6312 -1.40924 42.2499 -1.47273C43.4566 -1.39333 44.2249 -1.50296 45.307 -1.47133C46.3891 -1.43969 47.581 -1.33519 48.6631 -1.30356C49.6073 -1.2862 50.5242 -1.28243 51.4085 -1.29226C51.7138 -1.30605 52.0657 -1.30282 52.4426 -1.28274C52.9725 -1.24498 53.4653 -1.23865 53.8646 -1.26449C54.2639 -1.29033 54.5535 -1.34729 54.7003 -1.42885C54.5621 -1.50525 54.3759 -1.60375 54.1612 -1.70579C54.5562 -1.78964 55.1561 -1.82495 55.8721 -1.80646L56.8836 -1.81051C57.1517 -1.80829 57.3566 -1.83096 57.456 -1.87382C57.5554 -1.91668 57.5417 -1.97644 57.4176 -2.04076C55.4995 -2.36455 55.4289 -2.40024 54.0211 -2.19198L52.152 -2.28876L52.1835 -2.29024ZM77.4655 -1.40081L77.3231 -1.41845L77.4655 -1.40081ZM310.401 33.0481L310.369 33.1033L310.404 33.0431L310.718 33.0819L310.739 33.0468L310.401 33.0481ZM264.903 8.84248C264.46 8.78223 264.013 8.72684 263.564 8.67665C263.446 8.66886 263.336 8.6671 263.243 8.67152C263.15 8.67593 263.076 8.68639 263.029 8.702C262.993 8.76225 263.244 8.80405 263.471 8.83228C263.759 8.87027 264.052 8.89441 264.322 8.90222C264.591 8.91002 264.827 8.90121 265.005 8.87668L265.262 8.8547L264.903 8.84248ZM36.761 23.526C37.0526 23.5362 37.3291 23.5378 37.5838 23.5309C38.7135 23.4822 39.7951 23.4114 40.9533 23.3663C42.4147 23.2516 44.0939 23.2049 45.9281 23.2279C46.6446 23.2392 47.25 23.202 47.6735 23.1208C47.9271 23.0772 48.2543 23.0517 48.6352 23.0459L53.4841 22.9135C53.7838 22.886 54.043 22.8475 54.2554 22.7989C53.8281 22.746 53.5432 22.7107 53.3723 22.6895C53.0176 22.6835 52.7128 22.6997 52.4883 22.7363C52.2472 22.7984 51.8397 22.8229 51.3466 22.8051C50.8489 22.7903 50.3635 22.7824 49.893 22.7813C49.0043 22.7844 48.1096 22.7976 47.218 22.8057C46.8711 22.9783 45.8472 22.9 44.9704 22.883L44.2931 22.8907C42.0791 22.9802 39.9642 23.1033 37.9587 23.2594C37.5711 23.2858 37.2371 23.328 36.9672 23.3845C36.8655 23.4286 36.8329 23.4836 36.872 23.5452L36.7296 23.5275L36.761 23.526ZM135.63 40.0286C136.167 40.0403 136.727 40.0645 137.3 40.1006C137.742 40.1376 138.172 40.16 138.575 40.167C140.834 40.2057 143.187 40.2951 145.603 40.4339C145.919 40.4549 146.223 40.4652 146.503 40.4644L148.481 40.4292C149.104 40.4094 149.116 40.3893 148.662 40.1229C148.286 40.0712 147.905 40.0241 147.523 39.9818C147.295 39.9536 146.924 39.9077 146.838 39.9508C146.309 40.0686 145.345 39.9923 144.534 39.9674C142.187 39.903 139.767 39.808 137.397 39.7301C136.896 39.711 136.411 39.7014 135.946 39.7013C135.658 39.6973 135.395 39.7048 135.169 39.7235C135.102 39.7254 135.047 39.731 135.006 39.7399C134.965 39.7487 134.94 39.7607 134.931 39.7749C134.923 39.7892 134.932 39.8054 134.957 39.8225C134.983 39.8396 135.024 39.8572 135.079 39.8741C135.273 39.9334 135.497 39.9902 135.744 40.0427L135.63 40.0286ZM152.824 1.3687L155.136 1.33712C155.413 1.33373 155.648 1.29819 155.945 1.31339C157.528 1.36157 158.994 1.34815 160.28 1.2737C160.718 1.24332 161.231 1.23724 161.789 1.25581C163.5 1.31083 165.113 1.31309 166.586 1.26254C167.538 1.25239 168.429 1.21831 169.246 1.16081C169.309 1.14746 169.348 1.12934 169.361 1.10768C169.374 1.08602 169.36 1.06133 169.32 1.0353C169.31 1.01885 169.282 1.00116 169.238 0.983441C169.194 0.965724 169.136 0.948396 169.067 0.93266C168.998 0.916925 168.92 0.903156 168.838 0.892295C168.756 0.881432 168.672 0.873732 168.593 0.869738C167.561 0.791905 166.582 0.764791 165.735 0.790594C164.949 0.82147 164.104 0.830503 163.211 0.817556C162.357 0.81415 161.777 0.914823 160.722 0.838005C160.275 0.812711 159.882 0.821039 159.607 0.861595C159.054 0.928817 158.283 0.932556 157.43 0.872146C156.919 0.841572 156.432 0.828462 155.985 0.833313C154.901 0.855414 153.866 0.899633 152.862 0.942358C152.546 0.952243 152.207 0.953607 151.851 0.946419L146.824 0.862756C145.616 0.837091 144.411 0.806405 143.226 0.794312C142.256 0.768049 141.354 0.776275 140.551 0.818696C139.694 0.863284 138.761 0.881386 137.767 0.872658C136.223 0.897059 134.689 0.906392 133.009 0.903109C131.937 0.905128 130.84 0.898602 129.721 0.878503C129.154 0.852635 128.674 0.873702 128.371 0.937647C128.187 0.990292 127.753 0.947403 127.394 0.935186C125.475 0.817429 123.676 0.789527 122.121 0.853422C121.923 0.863835 121.705 0.867604 121.472 0.864666C119.975 0.862471 118.424 0.8482 116.987 0.848042C116.609 0.853006 116.253 0.866628 115.923 0.888735C115.959 0.924803 116.059 0.963894 116.204 0.997901C116.349 1.03191 116.527 1.05823 116.702 1.07139C118.061 1.17215 119.373 1.22538 120.584 1.22884C122.599 1.21601 124.709 1.24487 126.893 1.31511C128.588 1.38593 130.133 1.37102 131.414 1.27149C132.416 1.19723 133.718 1.22517 135.098 1.35052C135.689 1.41038 136.262 1.43432 136.739 1.41906C137.199 1.39904 137.726 1.4039 138.291 1.43334C139.48 1.48932 140.624 1.51529 141.7 1.51074C142.752 1.49013 143.734 1.43383 144.814 1.41675C145.894 1.39967 147.54 1.40946 148.872 1.38044C150.204 1.35142 151.521 1.34751 152.824 1.3687ZM57.015 -1.56789C57.1371 -1.41266 57.5692 -1.31604 58.0339 -1.27465C59.6362 -1.09085 61.2202 -1.01264 62.5201 -1.05314C63.2223 -1.10963 64.1583 -1.08788 65.1444 -0.992174C66.2925 -0.892684 67.3657 -0.876184 68.1747 -0.945584C68.3729 -0.957709 68.5247 -0.983345 68.6165 -1.02021C68.6343 -1.05033 68.6671 -1.10555 68.673 -1.11559C68.588 -1.14106 68.4838 -1.16465 68.3683 -1.18456C68.2529 -1.20446 68.1293 -1.22014 68.0072 -1.23039L62.6999 -1.40809L61.7751 -1.4472C60.0858 -1.54964 58.4761 -1.59045 57.015 -1.56789ZM67.4544 0.889078C68.2828 1.14256 68.2856 1.13753 68.71 1.19548C70.7572 1.43616 72.8031 1.56609 74.6041 1.5698C75.0043 1.56906 75.3441 1.5446 75.5944 1.49845C75.7232 1.4922 75.8052 1.47233 75.8225 1.44317C75.8398 1.41402 75.791 1.37794 75.6867 1.34282L75.028 1.16424C73.8318 1.08693 72.6528 1.0255 71.498 0.980323C70.1535 0.926976 68.9621 0.924916 67.5683 0.903184L67.4544 0.889078ZM135.531 38.9061C136.303 39.255 136.306 39.25 137.598 39.34C138.498 39.4037 139.372 39.4412 140.192 39.4511C141.195 39.4621 142.223 39.4817 143.223 39.4977C143.467 39.5088 143.674 39.4996 143.803 39.4718C143.933 39.4441 143.975 39.3997 143.923 39.3474C143.792 39.2906 143.587 39.2357 143.341 39.1915C143.095 39.1474 142.823 39.1166 142.569 39.1042L142.023 39.0959C141.361 39.0785 140.673 39.0526 140.033 39.0488C139.618 39.0633 139.137 39.0521 138.628 39.0161C138.118 38.9802 137.595 38.9204 137.098 38.8416L135.531 38.9061ZM71.5758 -1.11174C71.7819 -1.05133 72.015 -0.993461 72.2689 -0.939687C73.2519 -0.790636 74.2923 -0.705981 75.1862 -0.702319C75.6088 -0.693086 75.9953 -0.726052 76.4256 -0.678147C77.1974 -0.614131 77.9453 -0.580033 78.629 -0.577695C78.629 -0.577695 78.8208 -0.591672 78.8837 -0.594656L79.0146 -0.815557C78.6909 -0.866731 78.3534 -0.908538 78.0175 -0.939053C76.8903 -0.997824 75.7827 -1.038 74.678 -1.08321C73.5734 -1.12841 73.1882 -1.14917 72.4658 -1.16859C72.1435 -1.15791 71.8454 -1.13887 71.5758 -1.11174ZM47.166 26.3506L48.6411 26.8027C49.1184 26.842 49.5643 26.8491 49.911 26.823C50.2577 26.7969 50.4861 26.7389 50.5616 26.658C50.683 26.6201 50.6952 26.564 50.5955 26.5014C50.4957 26.4388 50.2919 26.3746 50.0266 26.3223C49.7713 26.2602 49.4799 26.2046 49.1704 26.1589C48.8608 26.1131 48.5398 26.0782 48.2272 26.0563L47.166 26.3506ZM59.4476 24.0994C58.4828 24.0227 57.56 23.9914 56.7498 24.0078C56.2393 24.0526 55.5476 24.0383 54.8165 23.9677C53.4869 23.8271 52.2052 23.7881 51.2418 23.8591C51.2418 23.8591 51.2061 23.9194 51.0428 23.9369C50.8795 23.9544 51.5271 23.9968 51.6696 24.0145C52.7143 24.0576 53.7649 24.0908 54.6731 24.1063C55.237 24.1056 55.8334 24.1198 56.4521 24.1487C57.3034 24.1934 58.1108 24.2078 58.8426 24.1915C58.8426 24.1915 59.1258 24.1781 59.4446 24.1044L59.4476 24.0994ZM162.483 0.549553C162.022 0.464401 161.522 0.395194 161.021 0.34713C160.52 0.299064 160.031 0.273389 159.59 0.272022C159.252 0.26758 158.978 0.290061 158.813 0.335914C158.647 0.38177 158.599 0.448377 158.675 0.525206C159.017 0.567548 159.473 0.623999 159.729 0.655755C160.618 0.652647 161.376 0.611817 162.483 0.549553ZM248.746 7.72523C248.376 7.65668 247.969 7.60427 247.571 7.57399C247.172 7.5437 246.799 7.53676 246.493 7.55396C246.336 7.56142 246.442 7.63931 246.416 7.68449C246.398 7.69474 246.398 7.70747 246.416 7.72138C246.434 7.73528 246.469 7.74984 246.517 7.76352C246.565 7.7772 246.625 7.7895 246.69 7.79914C246.755 7.80877 246.823 7.81539 246.887 7.81828C247.288 7.84781 247.666 7.8566 247.989 7.84387C248.311 7.83114 248.567 7.79728 248.734 7.74531L248.746 7.72523ZM254.526 8.70513C254.469 8.66468 254.347 8.62253 254.183 8.58639C254.019 8.55025 253.824 8.52255 253.633 8.50837C253.296 8.50647 252.99 8.51768 252.727 8.5416C252.441 8.56005 252.646 8.67716 253.033 8.74663C253.197 8.77453 253.372 8.79628 253.545 8.81017C253.717 8.82406 253.882 8.8297 254.026 8.82664C254.171 8.82359 254.29 8.81192 254.376 8.79257C254.462 8.77322 254.511 8.74672 254.52 8.71517L254.526 8.70513ZM86.5801 -0.681515C85.7178 -0.826039 85.0541 -0.78968 84.324 -0.847767C83.5939 -0.905853 83.4141 -0.911965 83.5119 -0.819016C83.6097 -0.726066 84.1101 -0.744917 84.4235 -0.706105C84.8469 -0.654604 85.2729 -0.625031 85.6537 -0.620688C86.0346 -0.616345 86.3553 -0.637405 86.5801 -0.681515ZM266.268 23.7721C265.811 23.7396 265.364 23.7167 264.933 23.7037C264.876 23.7171 264.84 23.7347 264.828 23.7554C264.816 23.7761 264.827 23.7995 264.861 23.8242C264.861 23.8242 265.154 23.8981 265.325 23.9193C265.954 23.9919 265.985 23.8879 266.268 23.7721ZM330.823 37.2372C331.132 37.3347 331.276 37.4011 331.524 37.4479C331.637 37.4642 331.755 37.476 331.867 37.4825C331.98 37.4889 332.085 37.4899 332.174 37.4854C332.283 37.4573 332.308 37.4142 332.246 37.3649C332.246 37.3649 331.931 37.2774 331.811 37.2733C331.469 37.2526 331.137 37.2405 330.823 37.2372ZM71.9023 -1.50782C71.2471 -1.58897 70.6203 -1.6666 70.1666 -1.5719C71.2071 -1.46998 71.2071 -1.46997 71.9023 -1.50782ZM82.5148 -0.581438C81.8532 -0.754995 81.465 -0.770746 81.1474 -0.750804C81.0798 -0.745782 81.0352 -0.734587 81.0201 -0.71892C81.005 -0.703254 81.0204 -0.683965 81.0638 -0.66397C81.1072 -0.643977 81.1764 -0.62437 81.2608 -0.60811C81.3453 -0.591851 81.4404 -0.579826 81.5318 -0.573856C81.8768 -0.56886 82.2059 -0.571398 82.5148 -0.581438ZM116.568 -0.508048C116.582 -0.53315 116.6 -0.563272 116.429 -0.584443C116.385 -0.59519 116.332 -0.604432 116.277 -0.611245C116.222 -0.618057 116.167 -0.622197 116.116 -0.62325C116.116 -0.62325 116.098 -0.593126 116.086 -0.573044L116.568 -0.508048ZM140.215 41.1676L139.834 41.1905L140.005 41.2117L140.456 41.2245L140.215 41.1676ZM274.207 8.31343C274.064 8.29579 273.922 8.27814 273.901 8.31329C273.871 8.31873 273.852 8.32659 273.847 8.3362C273.841 8.3458 273.848 8.35688 273.868 8.36851C273.868 8.36851 274.068 8.39321 274.153 8.4038L274.207 8.31343ZM252.023 8.59451C251.929 8.59249 251.844 8.59485 251.774 8.60143L251.756 8.63155L252.041 8.66684L252.023 8.59451ZM58.6952 15.7718C58.5852 15.7535 58.4686 15.7391 58.3534 15.7295L58.2109 15.7118C58.2109 15.7118 58.3639 15.7631 58.4494 15.7737C58.5349 15.7843 58.6038 15.7713 58.6952 15.7718Z" fill="#DF6951"/>
</g>
</svg>
